<?xml version="1.0" encoding="utf-8"?>
<!-- Generator: Adobe Illustrator 19.1.0, SVG Export Plug-In . SVG Version: 6.00 Build 0)  -->
<svg version="1.1" id="Base" xmlns="http://www.w3.org/2000/svg" xmlns:xlink="http://www.w3.org/1999/xlink" x="0px" y="0px"
	 viewBox="404 70.9 2000 700" style="enable-background:new 404 70.9 2000 700;" xml:space="preserve">
<metadata><?xpacket begin="﻿" id="W5M0MpCehiHzreSzNTczkc9d"?>
<x:xmpmeta xmlns:x="adobe:ns:meta/" x:xmptk="Adobe XMP Core 5.6-c067 79.157747, 2015/03/30-23:40:42        ">
   <rdf:RDF xmlns:rdf="http://www.w3.org/1999/02/22-rdf-syntax-ns#">
      <rdf:Description rdf:about=""/>
   </rdf:RDF>
</x:xmpmeta>
                                                                                                    
                                                                                                    
                                                                                                    
                                                                                                    
                                                                                                    
                                                                                                    
                                                                                                    
                                                                                                    
                                                                                                    
                                                                                                    
                                                                                                    
                                                                                                    
                                                                                                    
                                                                                                    
                                                                                                    
                                                                                                    
                                                                                                    
                                                                                                    
                                                                                                    
                                                                                                    
                           
<?xpacket end="w"?></metadata>
<style type="text/css">
	.st0{fill:#FFFFFF;}
	.st1{fill:#7DC6DF;}
	.st2{fill:#B8E0EB;}
	.st3{fill:#7EC6DF;}
	.st4{fill:none;}
	.st5{fill:#363535;}
	.st6{fill:#373535;}
</style>
<g>
	<path class="st0" d="M1060.7,267.5c1.8,1.7,3.3,4.5,4.6,8.3l78.1,201.3c0.2,0.6,0.3,1.4,0.3,2.2c0,2.3-0.9,4.4-2.5,6.1
		c-1.7,1.7-3.7,2.5-6.1,2.5h-22.9c-6.4,0-10.5-2.7-12.4-8l-13.8-35.3H985.4l-13.7,35.3c-1.9,5.3-6.1,8-12.4,8h-22.9
		c-2.3,0-4.4-0.8-6.1-2.5c-1.7-1.7-2.5-3.7-2.5-6.1c0-0.8,0.1-1.6,0.3-2.2l78.1-201.3c1.3-3.8,2.8-6.6,4.6-8.3
		c1.8-1.7,4.3-2.5,7.5-2.5h35C1056.4,264.9,1058.9,265.8,1060.7,267.5z M1035.7,314l-35,90.8h70.1L1035.7,314z"/>
	<path class="st0" d="M1331.3,326.5c-1.7,1.6-3.8,2.4-6.4,2.4h-22.3c-3.4,0-6.1-0.6-8-1.9c-1.9-1.3-3.6-3.2-5.1-5.7
		c-3.6-5.9-8.8-10.7-15.6-14.3s-16-5.4-27.7-5.4c-11.5,0-21.1,2.3-29,7c-7.9,4.7-11.8,10.9-11.8,18.8c0,6.4,1.9,11.3,5.6,14.8
		s9.5,6.4,17.4,8.8c7.9,2.3,20.7,5.4,38.5,9.2c25.7,5.5,44.3,13.3,55.8,23.3s17.2,23.7,17.2,41.1c0,12.7-3.7,24.2-11.1,34.2
		c-7.4,10.1-18.1,18-32,23.7s-30.2,8.6-48.9,8.6c-15.9,0-30.8-2.5-44.6-7.6s-25-12.4-33.5-21.8s-13.1-20.2-13.7-32.3
		c-0.2-2.5,0.5-4.6,2.2-6.2s3.8-2.4,6.4-2.4h22.3c3.4,0,6.1,0.6,8.1,1.9s3.7,3.2,4.9,5.7c3.6,7,8.9,12.6,15.8,16.7
		c6.9,4.1,17.6,6.2,32,6.2c14,0,25.7-2.2,35-6.7c9.3-4.5,14-11.1,14-20.1c0-5.1-1.8-9.2-5.4-12.3c-3.6-3.1-8.7-5.6-15.3-7.6
		s-16.6-4.6-29.9-7.8c-5.3-1.1-12.2-2.7-20.7-4.8c-22.3-5.5-38.4-13.1-48.3-22.6c-9.9-9.6-14.8-23.6-14.8-42.1
		c0-12.5,3.7-23.8,11-33.8c7.3-10,17.4-17.8,30.1-23.4s27-8.4,42.7-8.4c17.8,0,33.3,3,46.4,9.1s23,13.6,29.8,22.8
		c6.8,9.1,10.5,18.1,11.1,26.8C1333.8,322.9,1333,325,1331.3,326.5z"/>
	<path class="st0" d="M1519.5,272.5c13.9,7.2,23.8,15.7,29.8,25.3c5.9,9.7,9.2,18.6,9.9,26.9c0.2,2.5-0.5,4.6-2.2,6.2
		s-3.8,2.4-6.4,2.4h-25.8c-3.8,0-6.7-1.8-8.6-5.4c-9.6-17.6-26.7-26.4-51.3-26.4c-15.7,0-28.4,4.3-38.1,12.9s-14.8,20.1-15.5,34.6
		c-0.2,5.3-0.3,13.9-0.3,25.8c0,12.1,0.1,20.8,0.3,26.1c0.6,17,5.6,29.6,15,37.9c9.3,8.3,22.2,12.4,38.5,12.4
		c35.9,0,53.8-16.4,53.8-49.1v-2.5h-38.9c-2.3,0-4.4-0.8-6.1-2.5s-2.5-3.7-2.5-6.1v-22.6c0-2.3,0.8-4.4,2.5-6.1s3.7-2.5,6.1-2.5
		h73.3c2.3,0,4.3,0.9,6.1,2.5c1.7,1.7,2.5,3.7,2.5,6.1v35c0,17.2-3.7,32.4-11,45.6s-18.3,23.5-32.8,30.9s-32.2,11.1-53,11.1
		c-31,0-54.6-7.8-70.7-23.4c-16.1-15.6-24.7-36.8-25.8-63.6c-0.2-5.3-0.3-14.8-0.3-28.4s0.1-23,0.3-28.4
		c1.1-26.1,9.8-46.9,26.1-62.4c16.4-15.5,39.8-23.3,70.4-23.3C1487.3,261.7,1505.5,265.3,1519.5,272.5z"/>
	<path class="st0" d="M1752.8,283.4c14,12.3,21,29.4,21,51.3c0,15.5-3.6,28.7-10.8,39.7c-7.2,10.9-17.6,19.1-31.2,24.4l44,78.7
		c0.6,1.3,1,2.4,1,3.5c0,1.9-0.7,3.6-2.1,4.9c-1.4,1.4-3,2.1-4.9,2.1h-27.1c-6.2,0-10.7-2.9-13.7-8.6l-41.7-74.2h-42.4v74.2
		c0,2.3-0.9,4.4-2.5,6.1c-1.7,1.7-3.7,2.5-6.1,2.5h-25.8c-2.3,0-4.4-0.8-6.1-2.5s-2.5-3.7-2.5-6.1V273.5c0-2.3,0.8-4.4,2.5-6.1
		s3.7-2.5,6.1-2.5h82.2C1718.7,264.9,1738.8,271.1,1752.8,283.4z M1691,365.3c13,0,22.8-2.3,29.6-6.8c6.8-4.6,10.2-12.5,10.2-23.7
		c0-11.3-3.3-19.1-10-23.4c-6.7-4.4-16.6-6.5-29.8-6.5h-46.2v60.5h46.2V365.3z"/>
	<path class="st0" d="M1927.5,267.5c1.8,1.7,3.3,4.5,4.6,8.3l78.1,201.3c0.2,0.6,0.3,1.4,0.3,2.2c0,2.3-0.9,4.4-2.5,6.1
		c-1.7,1.7-3.7,2.5-6.1,2.5H1979c-6.4,0-10.5-2.7-12.4-8l-13.7-35.4h-100.7l-13.7,35.4c-1.9,5.3-6.1,8-12.4,8h-22.9
		c-2.3,0-4.4-0.8-6.1-2.5s-2.5-3.7-2.5-6.1c0-0.8,0.1-1.6,0.3-2.2l78-201.3c1.3-3.8,2.8-6.6,4.6-8.3c1.8-1.7,4.3-2.5,7.5-2.5h35
		C1923.2,264.9,1925.7,265.8,1927.5,267.5z M1902.5,314l-35,90.8h70.1L1902.5,314z"/>
	<path class="st0" d="M2171.7,480.6l-89.2-132.5v131.3c0,2.3-0.9,4.4-2.5,6.1c-1.7,1.7-3.7,2.5-6.1,2.5h-25.8
		c-2.3,0-4.4-0.8-6.1-2.5s-2.5-3.7-2.5-6.1V273.5c0-2.3,0.8-4.4,2.5-6.1s3.7-2.5,6.1-2.5h22.3c4.9,0,9,2.4,12.4,7.3l89.2,132.5
		V273.5c0-2.3,0.8-4.4,2.5-6.1s3.7-2.5,6.1-2.5h25.8c2.3,0,4.4,0.9,6.1,2.5c1.7,1.7,2.5,3.7,2.5,6.1v205.8c0,2.3-0.9,4.4-2.5,6.1
		c-1.7,1.7-3.7,2.5-6.1,2.5h-22.3C2179.3,487.9,2175.1,485.5,2171.7,480.6z"/>
</g>
<g>
	<path class="st1" d="M954.8,553.6c0.4,0.4,0.8,1.1,1.1,2l19,49c0.1,0.2,0.1,0.3,0.1,0.5c0,0.6-0.2,1.1-0.6,1.5
		c-0.4,0.4-0.9,0.6-1.5,0.6h-5.6c-1.6,0-2.6-0.6-3-1.9l-3.3-8.6h-24.5l-3.3,8.6c-0.5,1.3-1.5,1.9-3,1.9h-5.6c-0.6,0-1.1-0.2-1.5-0.6
		c-0.4-0.4-0.6-0.9-0.6-1.5c0-0.2,0-0.4,0.1-0.5l19-49c0.3-0.9,0.7-1.6,1.1-2c0.4-0.4,1-0.6,1.8-0.6h8.5
		C953.7,553,954.3,553.2,954.8,553.6z M948.7,564.9l-8.5,22.1h17.1L948.7,564.9z"/>
	<path class="st1" d="M1051.4,598.2c0.4,0.4,0.6,0.9,0.6,1.5v5.5c0,0.6-0.2,1.1-0.6,1.5s-0.9,0.6-1.5,0.6h-34
		c-0.6,0-1.1-0.2-1.5-0.6c-0.4-0.4-0.6-0.9-0.6-1.5v-50.1c0-0.6,0.2-1.1,0.6-1.5c0.4-0.4,0.9-0.6,1.5-0.6h6.3c0.6,0,1.1,0.2,1.5,0.6
		c0.4,0.4,0.6,0.9,0.6,1.5v42.5h25.7C1050.5,597.6,1051,597.8,1051.4,598.2z"/>
	<path class="st1" d="M1120.2,553.6c0.4,0.4,0.6,0.9,0.6,1.5v5.5c0,0.6-0.2,1.1-0.6,1.5c-0.4,0.4-0.9,0.6-1.5,0.6h-14v42.5
		c0,0.6-0.2,1.1-0.6,1.5c-0.4,0.4-0.9,0.6-1.5,0.6h-6.3c-0.6,0-1.1-0.2-1.5-0.6c-0.4-0.4-0.6-0.9-0.6-1.5v-42.5h-14
		c-0.6,0-1.1-0.2-1.5-0.6c-0.4-0.4-0.6-0.9-0.6-1.5v-5.5c0-0.6,0.2-1.1,0.6-1.5c0.4-0.4,0.9-0.6,1.5-0.6h38.4
		C1119.3,553,1119.8,553.2,1120.2,553.6z"/>
	<path class="st1" d="M1182.2,553.6c0.4,0.4,0.8,1.1,1.1,2l19,49c0.1,0.2,0.1,0.3,0.1,0.5c0,0.6-0.2,1.1-0.6,1.5
		c-0.4,0.4-0.9,0.6-1.5,0.6h-5.6c-1.6,0-2.6-0.6-3-1.9l-3.3-8.6h-24.5l-3.3,8.6c-0.5,1.3-1.5,1.9-3,1.9h-5.6c-0.6,0-1.1-0.2-1.5-0.6
		c-0.4-0.4-0.6-0.9-0.6-1.5c0-0.2,0-0.4,0.1-0.5l19-49c0.3-0.9,0.7-1.6,1.1-2c0.4-0.4,1-0.6,1.8-0.6h8.5
		C1181.2,553,1181.8,553.2,1182.2,553.6z M1176.1,564.9l-8.5,22.1h17.1L1176.1,564.9z"/>
	<path class="st1" d="M1280,568c-0.4,0.4-0.9,0.6-1.6,0.6h-5.4c-0.8,0-1.5-0.2-1.9-0.5c-0.5-0.3-0.9-0.8-1.2-1.4
		c-0.9-1.4-2.1-2.6-3.8-3.5c-1.7-0.9-3.9-1.3-6.8-1.3c-2.8,0-5.1,0.6-7.1,1.7c-1.9,1.1-2.9,2.7-2.9,4.6c0,1.6,0.5,2.8,1.4,3.6
		c0.9,0.9,2.3,1.6,4.2,2.1c1.9,0.6,5,1.3,9.4,2.3c6.3,1.3,10.8,3.2,13.6,5.7c2.8,2.4,4.2,5.8,4.2,10c0,3.1-0.9,5.9-2.7,8.3
		c-1.8,2.5-4.4,4.4-7.8,5.8c-3.4,1.4-7.4,2.1-11.9,2.1c-3.9,0-7.5-0.6-10.9-1.9c-3.4-1.2-6.1-3-8.1-5.3c-2.1-2.3-3.2-4.9-3.3-7.9
		c-0.1-0.6,0.1-1.1,0.5-1.5s0.9-0.6,1.6-0.6h5.4c0.8,0,1.5,0.2,2,0.5s0.9,0.8,1.2,1.4c0.9,1.7,2.2,3.1,3.8,4.1
		c1.7,1,4.3,1.5,7.8,1.5c3.4,0,6.3-0.5,8.5-1.6c2.3-1.1,3.4-2.7,3.4-4.9c0-1.2-0.4-2.2-1.3-3c-0.9-0.7-2.1-1.4-3.7-1.9
		c-1.6-0.5-4-1.1-7.3-1.9c-1.3-0.3-3-0.6-5-1.2c-5.4-1.3-9.4-3.2-11.8-5.5c-2.4-2.3-3.6-5.7-3.6-10.2c0-3.1,0.9-5.8,2.7-8.2
		s4.2-4.3,7.3-5.7c3.1-1.4,6.6-2.1,10.4-2.1c4.3,0,8.1,0.7,11.3,2.2s5.6,3.3,7.3,5.5c1.7,2.2,2.6,4.4,2.7,6.5
		C1280.6,567.1,1280.4,567.6,1280,568z"/>
	<path class="st1" d="M1414.2,588c0.6,0,1.1,0.2,1.6,0.6c0.4,0.4,0.6,0.9,0.5,1.5c-0.2,3-1.2,5.9-2.8,8.6c-1.7,2.7-4.2,5-7.6,6.7
		s-7.6,2.6-12.7,2.6c-6.9,0-12.4-2-16.3-5.9s-6.1-9.1-6.5-15.6c-0.1-2.6-0.2-4.8-0.2-6.5s0.1-3.9,0.2-6.5c0.4-6.5,2.6-11.7,6.5-15.6
		c3.9-3.9,9.4-5.9,16.3-5.9c5.1,0,9.3,0.9,12.7,2.6s5.9,4,7.6,6.7s2.6,5.6,2.8,8.6c0.1,0.6-0.1,1.1-0.5,1.5
		c-0.4,0.4-0.9,0.6-1.6,0.6h-6.3c-0.5,0-1-0.2-1.5-0.5c-0.5-0.4-0.8-0.9-0.9-1.5c-0.4-2.3-1.6-4.3-3.7-5.9c-2-1.6-5-2.4-8.7-2.4
		c-3.8,0-6.8,1.1-8.9,3.3c-2.1,2.2-3.2,5-3.5,8.5c-0.1,2.6-0.2,4.8-0.2,6.5s0.1,3.9,0.2,6.5c0.2,3.5,1.4,6.3,3.5,8.5
		s5.1,3.3,8.9,3.3c3.8,0,6.7-0.8,8.8-2.4c2.1-1.6,3.3-3.6,3.7-5.9c0.1-0.6,0.4-1.1,0.8-1.5c0.4-0.4,0.9-0.5,1.4-0.5L1414.2,588
		L1414.2,588z"/>
	<path class="st1" d="M1484,553.6c0.4,0.4,0.8,1.1,1.1,2l19,49c0.1,0.2,0.1,0.3,0.1,0.5c0,0.6-0.2,1.1-0.6,1.5s-0.9,0.6-1.5,0.6
		h-5.6c-1.6,0-2.6-0.6-3-1.9l-3.3-8.6h-24.5l-3.3,8.6c-0.5,1.3-1.5,1.9-3,1.9h-5.6c-0.6,0-1.1-0.2-1.5-0.6c-0.4-0.4-0.6-0.9-0.6-1.5
		c0-0.2,0-0.4,0.1-0.5l19-49c0.3-0.9,0.7-1.6,1.1-2c0.4-0.4,1-0.6,1.8-0.6h8.5C1482.9,553,1483.5,553.2,1484,553.6z M1477.9,564.9
		l-8.5,22.1h17.1L1477.9,564.9z"/>
	<path class="st1" d="M1580.6,557.4c3.5,3,5.2,7.3,5.2,12.9c0,5.6-1.7,10-5.2,13c-3.5,3-8.3,4.5-14.6,4.5h-12.4v17.3
		c0,0.6-0.2,1.1-0.6,1.5s-0.9,0.6-1.5,0.6h-6.3c-0.6,0-1.1-0.2-1.5-0.6c-0.4-0.4-0.6-0.9-0.6-1.5V555c0-0.6,0.2-1.1,0.6-1.5
		c0.4-0.4,0.9-0.6,1.5-0.6h20.8C1572.2,553,1577.1,554.4,1580.6,557.4z M1565.6,578.2c3.1,0,5.5-0.6,7.2-1.8c1.7-1.2,2.5-3.2,2.5-6
		s-0.8-4.8-2.5-5.9c-1.7-1.2-4.1-1.7-7.2-1.7h-12v15.5L1565.6,578.2L1565.6,578.2z"/>
	<path class="st1" d="M1650.1,553.6c0.4,0.4,0.8,1.1,1.1,2l19,49c0.1,0.2,0.1,0.3,0.1,0.5c0,0.6-0.2,1.1-0.6,1.5s-0.9,0.6-1.5,0.6
		h-5.6c-1.6,0-2.6-0.6-3-1.9l-3.3-8.6h-24.5l-3.3,8.6c-0.5,1.3-1.5,1.9-3,1.9h-5.6c-0.6,0-1.1-0.2-1.5-0.6c-0.4-0.4-0.6-0.9-0.6-1.5
		c0-0.2,0-0.4,0.1-0.5l19-49c0.3-0.9,0.7-1.6,1.1-2c0.4-0.4,1-0.6,1.8-0.6h8.5C1649.1,553,1649.7,553.2,1650.1,553.6z M1644,564.9
		l-8.5,22.1h17.1L1644,564.9z"/>
	<path class="st1" d="M1750,588c0.6,0,1.1,0.2,1.6,0.6c0.4,0.4,0.6,0.9,0.5,1.5c-0.2,3-1.2,5.9-2.8,8.6c-1.7,2.7-4.2,5-7.6,6.7
		s-7.6,2.6-12.7,2.6c-6.9,0-12.4-2-16.3-5.9s-6.1-9.1-6.5-15.6c-0.1-2.6-0.2-4.8-0.2-6.5s0.1-3.9,0.2-6.5c0.4-6.5,2.6-11.7,6.5-15.6
		c3.9-3.9,9.4-5.9,16.3-5.9c5.1,0,9.3,0.9,12.7,2.6c3.4,1.7,5.9,4,7.6,6.7s2.6,5.6,2.8,8.6c0.1,0.6-0.1,1.1-0.5,1.5
		c-0.4,0.4-0.9,0.6-1.6,0.6h-6.3c-0.5,0-1-0.2-1.5-0.5s-0.8-0.9-0.9-1.5c-0.4-2.3-1.6-4.3-3.7-5.9c-2-1.6-5-2.4-8.7-2.4
		c-3.8,0-6.8,1.1-8.9,3.3c-2.1,2.2-3.2,5-3.5,8.5c-0.1,2.6-0.2,4.8-0.2,6.5s0.1,3.9,0.2,6.5c0.2,3.5,1.4,6.3,3.5,8.5
		s5.1,3.3,8.9,3.3s6.7-0.8,8.8-2.4c2.1-1.6,3.3-3.6,3.7-5.9c0.1-0.6,0.4-1.1,0.8-1.5s0.9-0.5,1.4-0.5L1750,588L1750,588z"/>
	<path class="st1" d="M1793.7,606.7c-0.4-0.4-0.6-0.9-0.6-1.5v-50.1c0-0.6,0.2-1.1,0.6-1.5c0.4-0.4,0.9-0.6,1.5-0.6h6.3
		c0.6,0,1.1,0.2,1.5,0.6c0.4,0.4,0.6,0.9,0.6,1.5v50.1c0,0.6-0.2,1.1-0.6,1.5s-0.9,0.6-1.5,0.6h-6.3
		C1794.6,607.3,1794.1,607.1,1793.7,606.7z"/>
	<path class="st1" d="M1892.1,580.1c0,2.5-0.1,4.5-0.2,5.7c-0.4,6.8-2.5,12-6.3,15.8s-9.3,5.6-16.5,5.6h-19.6
		c-0.6,0-1.1-0.2-1.5-0.6c-0.4-0.4-0.6-0.9-0.6-1.5V555c0-0.6,0.2-1.1,0.6-1.5c0.4-0.4,0.9-0.6,1.5-0.6h19.2c7.4,0,13,1.9,16.8,5.6
		c3.8,3.8,5.9,9,6.4,15.8C1892,575.7,1892.1,577.6,1892.1,580.1z M1857.9,562.7v34.9h10.8c4.1,0,7.2-1.1,9.3-3.2
		c2.1-2.1,3.2-5,3.5-8.5c0.1-1.3,0.2-3.2,0.2-5.7s-0.1-4.4-0.2-5.7c-0.2-3.6-1.4-6.4-3.5-8.5c-2.1-2.1-5.3-3.2-9.6-3.2L1857.9,562.7
		L1857.9,562.7z"/>
	<path class="st1" d="M1960.1,553.6c0.4,0.4,0.8,1.1,1.1,2l19,49c0.1,0.2,0.1,0.3,0.1,0.5c0,0.6-0.2,1.1-0.6,1.5s-0.9,0.6-1.5,0.6
		h-5.6c-1.6,0-2.6-0.6-3-1.9l-3.3-8.6h-24.5l-3.3,8.6c-0.5,1.3-1.5,1.9-3,1.9h-5.6c-0.6,0-1.1-0.2-1.5-0.6c-0.4-0.4-0.6-0.9-0.6-1.5
		c0-0.2,0-0.4,0.1-0.5l19-49c0.3-0.9,0.7-1.6,1.1-2c0.4-0.4,1-0.6,1.8-0.6h8.5C1959,553,1959.7,553.2,1960.1,553.6z M1954,564.9
		l-8.5,22.1h17.1L1954,564.9z"/>
	<path class="st1" d="M2063.8,580.1c0,2.5-0.1,4.5-0.2,5.7c-0.4,6.8-2.5,12-6.3,15.8s-9.3,5.6-16.5,5.6h-19.6
		c-0.6,0-1.1-0.2-1.5-0.6c-0.4-0.4-0.6-0.9-0.6-1.5V555c0-0.6,0.2-1.1,0.6-1.5c0.4-0.4,0.9-0.6,1.5-0.6h19.2c7.4,0,13,1.9,16.8,5.6
		c3.8,3.8,5.9,9,6.4,15.8C2063.8,575.7,2063.8,577.6,2063.8,580.1z M2029.7,562.7v34.9h10.8c4.1,0,7.2-1.1,9.3-3.2
		c2.1-2.1,3.2-5,3.5-8.5c0.1-1.3,0.2-3.2,0.2-5.7s-0.1-4.4-0.2-5.7c-0.2-3.6-1.4-6.4-3.5-8.5c-2.1-2.1-5.3-3.2-9.6-3.2L2029.7,562.7
		L2029.7,562.7z"/>
	<path class="st1" d="M2116.1,597.6h25.7c0.6,0,1.1,0.2,1.5,0.6c0.4,0.4,0.6,0.9,0.6,1.5v5.5c0,0.6-0.2,1.1-0.6,1.5
		c-0.4,0.4-0.9,0.6-1.5,0.6h-34.1c-0.6,0-1.1-0.2-1.5-0.6c-0.4-0.4-0.6-0.9-0.6-1.5v-50.1c0-0.6,0.2-1.1,0.6-1.5
		c0.4-0.4,0.9-0.6,1.5-0.6h33.4c0.6,0,1.1,0.2,1.5,0.6c0.4,0.4,0.6,0.9,0.6,1.5v5.5c0,0.6-0.2,1.1-0.6,1.5c-0.4,0.4-0.9,0.6-1.5,0.6
		H2116V575h23.4c0.6,0,1.1,0.2,1.5,0.6c0.4,0.4,0.6,0.9,0.6,1.5v5.5c0,0.6-0.2,1.1-0.6,1.5c-0.4,0.4-0.9,0.6-1.5,0.6H2116v12.9
		H2116.1z"/>
	<path class="st1" d="M2224.7,568c-0.4,0.4-0.9,0.6-1.6,0.6h-5.4c-0.8,0-1.5-0.2-1.9-0.5c-0.5-0.3-0.9-0.8-1.2-1.4
		c-0.9-1.4-2.1-2.6-3.8-3.5c-1.7-0.9-3.9-1.3-6.8-1.3c-2.8,0-5.1,0.6-7.1,1.7c-1.9,1.1-2.9,2.7-2.9,4.6c0,1.6,0.5,2.8,1.4,3.6
		c0.9,0.9,2.3,1.6,4.2,2.1c1.9,0.6,5,1.3,9.4,2.3c6.3,1.3,10.8,3.2,13.6,5.7c2.8,2.4,4.2,5.8,4.2,10c0,3.1-0.9,5.9-2.7,8.3
		c-1.8,2.5-4.4,4.4-7.8,5.8s-7.4,2.1-11.9,2.1c-3.9,0-7.5-0.6-10.9-1.9c-3.4-1.2-6.1-3-8.1-5.3c-2.1-2.3-3.2-4.9-3.3-7.9
		c-0.1-0.6,0.1-1.1,0.5-1.5c0.4-0.4,0.9-0.6,1.6-0.6h5.4c0.8,0,1.5,0.2,2,0.5s0.9,0.8,1.2,1.4c0.9,1.7,2.2,3.1,3.8,4.1
		c1.7,1,4.3,1.5,7.8,1.5c3.4,0,6.3-0.5,8.5-1.6c2.3-1.1,3.4-2.7,3.4-4.9c0-1.2-0.4-2.2-1.3-3c-0.9-0.7-2.1-1.4-3.7-1.9
		s-4-1.1-7.3-1.9c-1.3-0.3-3-0.6-5-1.2c-5.4-1.3-9.4-3.2-11.8-5.5s-3.6-5.7-3.6-10.2c0-3.1,0.9-5.8,2.7-8.2c1.8-2.4,4.2-4.3,7.3-5.7
		s6.6-2.1,10.4-2.1c4.3,0,8.1,0.7,11.3,2.2c3.2,1.5,5.6,3.3,7.3,5.5s2.6,4.4,2.7,6.5C2225.3,567.1,2225.1,567.6,2224.7,568z"/>
</g>
<g>
	<g>
		<polygon class="st2" points="664.6,560.9 752.6,560.9 756.8,478.1 785.8,393.1 796.3,341.9 760.6,341.9 746.4,283.4 724.8,379.2 
			703.3,283.4 681.8,379.2 660.3,283.4 638.7,379.2 626.3,336.1 564.6,338.9 573.6,388.3 560.6,418.6 571.9,438.3 569.6,462.6 
			583.9,487.9 593.3,508.6 635.6,513.3 655.3,521.2 		"/>
	</g>
	<g>
		<polygon class="st3" points="709.9,224.9 648.1,233.1 605.7,255.3 572.3,299.6 564.6,338.9 626.3,336.1 638.7,379.2 660.3,283.4 
			681.8,379.2 703.3,283.4 724.8,379.2 746.4,283.5 760.6,341.9 796.6,341.9 792.9,385.2 763.4,443.8 752.6,553.9 752.6,560.9 
			790.6,560.9 796.3,517.6 806.3,468.2 832.6,425.6 846.9,392.6 850.3,353.3 840.3,298.9 807.3,256.6 755.6,231.5 		"/>
	</g>
	<g>
		<line class="st4" x1="659.6" y1="582" x2="792.5" y2="582"/>
		<path class="st5" d="M792.5,588.5H659.6c-3.6,0-6.5-2.9-6.5-6.5s2.9-6.5,6.5-6.5h132.9c3.6,0,6.5,2.9,6.5,6.5
			C799,585.6,796.1,588.5,792.5,588.5z"/>
	</g>
	<g>
		<line class="st4" x1="659.6" y1="600.6" x2="792.5" y2="600.6"/>
		<path class="st5" d="M792.5,607.1H659.6c-3.6,0-6.5-2.9-6.5-6.5s2.9-6.5,6.5-6.5h132.9c3.6,0,6.5,2.9,6.5,6.5
			S796.1,607.1,792.5,607.1z"/>
	</g>
	<g>
		<line class="st4" x1="695.2" y1="619.2" x2="757" y2="619.2"/>
		<path class="st5" d="M757,625.7h-61.9c-3.6,0-6.5-2.9-6.5-6.5s2.9-6.5,6.5-6.5H757c3.6,0,6.5,2.9,6.5,6.5S760.6,625.7,757,625.7z"
			/>
	</g>
	<path class="st6" d="M813.7,254c-26.2-23.7-60.9-37.3-95.2-37.4c-2.4-0.1-4.8-0.1-7.1-0.1c-10.3,0-20.2,0.5-29.7,1.6
		c-15.1,1.7-28.5,4.7-41,9c-13,4.5-24.2,10.1-34.4,17.2c-11.5,8-21.1,17.7-28.7,28.6c-8.6,12.3-14.7,26.1-18.2,40.9
		c-2.2,9.2-3.2,17.5-3.3,25.4c0,2.7,0.5,5.3,1.5,7.6c0.3,0.6,0.6,1.2,0.9,1.8c0.1,2.5,0.3,4.9,0.6,7.2c0.8,6.4,2.2,12.5,3.5,18.4
		l0.4,1.9c0.5,2.5,1.3,4.8,2,6.6c0.3,0.8,0.6,1.6,0.8,2.3c0.8,2.8,0.8,5.2-1.9,8.8c-0.5,0.7-1.1,1.4-1.7,2.2c-2,2.5-4.3,5.4-6.2,9
		c-6.6,12.2-3.2,26.7,8,34.5l0.2,0.1c0,1.4-0.1,2.7-0.3,3.8c-0.2,1.5-0.8,3.5-1.5,5.6c-0.1,0.5-0.3,0.9-0.4,1.4
		c-2,6.7-0.8,13.1,2.9,17.9c0.1,2.7,0.7,5.5,1.9,8c1.6,3.6,4.2,6.6,7.4,8.7c0.1,6,1.2,11.2,3.3,15.9c5.2,11.2,15.6,17.8,28.4,18.1
		c0.5,0,1,0,1.6,0c2.2,0,4.2-0.1,6.2-0.2c1.7-0.1,3.3-0.2,4.8-0.2c0.2,0,0.4,0,0.6,0h2.3c5.2,0.1,5.2,0.1,11.9,0.7
		c6.1,0.6,10.4,3.4,13.6,9.2c0.9,1.6,1.6,3,2,4.3c1.9,5.8,2.3,11.7,2.9,20.7l0.1,1.2c0.5,7.9,7.1,14.1,15,14.1H785
		c8.3,0,15-6.8,15-15.1c0-34.4,6.4-65.5,18.1-87.8c4.2-8,8.7-15.2,13-22.1c14.3-22.8,27.7-44.3,27.7-87.9
		C858.8,316.5,842.8,280.2,813.7,254z M663.1,528.2c-0.8-2.4-1.9-4.8-3.2-7c-5.6-9.9-14.1-15.7-25.3-16.7c-8.1-0.7-7.2-0.7-15.4-0.8
		c-0.3,0-0.5,0-0.8,0c-3.6,0-7.3,0.3-10.9,0.3c-0.4,0-0.8,0-1.2,0c-6.8-0.2-12.2-3-15.2-9.4c-1.8-3.8-2.1-7.9-1.9-12.1
		c0.2-4.4-1.4-7.8-5.6-9.3c-2.9-1.1-4.5-4.5-3.5-7.3c1.1-2.8,0.4-4.3-2.1-5.7c-2.2-1.2-2.4-3.1-1.7-5.5c0.9-3,1.9-6,2.4-9.1
		c0.5-3.3,0.5-6.8,0.5-10.2c0-2.6-1.3-4.6-3.5-6.1c-1.1-0.7-2.1-1.4-3.2-2.2c-5.6-3.9-6-10.2-3.4-15.1c1.8-3.3,4.4-6.2,6.7-9.2
		c5.1-6.7,6.8-14,4.3-22.2c-0.8-2.6-1.9-5.1-2.4-7.7c-1.4-6.3-2.8-12.5-3.7-19c-0.4-3.3-0.6-7.1-0.5-10.1h47.2l10.8,37.5
		c0.9,3.3,4,5.5,7.4,5.3c3.4-0.1,6.3-2.5,7.1-5.9l14.2-63.3l14.2,63.3c0.8,3.4,3.8,5.9,7.3,5.9s6.5-2.4,7.3-5.9l14.2-63.3l14.2,63.3
		c0.8,3.4,3.8,5.9,7.3,5.9s6.5-2.4,7.3-5.9l14.5-64.6l6.6,27c0.8,3.4,3.8,5.6,7.3,5.6h28.1c-1,25-7.2,36.5-14.8,50.5
		c-12.8,23.6-28.7,53.5-28.7,154.5c-34.4,0-78.3,0-78.3,0C666.1,543.9,665.7,536.1,663.1,528.2z M804.7,459.1
		c-18.3,34.7-19.9,76.8-19.9,94.8c-2.4,0-12,0-24.8,0c0-98,14.9-125.1,26.9-147.2c8.6-15.9,16.7-31,16.7-65.1c0-4.1-3.4-7.6-7.5-7.6
		h-29.8l-12.8-52.4c-0.8-3.4-3.8-5.6-7.3-5.6c0,0,0,0-0.1,0c-3.5,0-6.5,2.4-7.2,5.8l-14.2,63.3l-14.2-63.3c-0.8-3.4-3.8-5.9-7.3-5.9
		s-6.5,2.4-7.3,5.9l-14.2,63.3l-14.2-63.3c-0.8-3.4-3.8-5.9-7.3-5.9s-6.5,2.4-7.3,5.9L637.8,349l-4.3-14.8c-0.9-3.2-3.9-5.3-7.2-5.3
		h-54.5c0.5-4,1.2-7.8,2.1-11.6c3-12.9,8.3-24.9,15.9-35.8c6.8-9.8,15.3-18.1,25-24.9c9.4-6.6,19.7-11.6,30.6-15.3
		c12.3-4.2,24.9-6.8,37.8-8.3c9.3-1.1,18.6-1.5,28-1.5c2.3,0,4.6,0,6.9,0.1c60.2,0,125.5,47.9,125.5,124.6
		C843.8,408.2,823,424.4,804.7,459.1z"/>
</g>
</svg>
